<svg xmlns="http://www.w3.org/2000/svg" width="617" height="157"><defs><clipPath id="a"><path d="M0 0h617v157H0z"/></clipPath></defs><g clip-path="url(#a)" fill="#eed9d2"><path data-name="Path 76" d="M51.642 0Zm30.151 125.295c-10.222 15.532-30.087 30.78-30.149 30.828-.061-.047-19.926-15.3-30.148-30.828C-8.666 79.475 1.735 3.11 1.735 3.11S20.928 0 51.645 0s49.911 3.109 49.911 3.109 10.4 76.364-19.762 122.186Zm19.842-78.289a275.083 275.083 0 0 0-1.293-42.715c-4.314-.616-22.337-2.943-48.7-2.943S7.257 3.675 2.942 4.292A275 275 0 0 0 1.65 47.007c1.063 22.46 5.563 54.145 20.968 77.546 8.856 13.455 25.194 26.817 29.024 29.858 3.876-3.067 20.1-16.308 29.023-29.858 15.407-23.402 19.907-55.087 20.97-77.547ZM24.459 50.29c.4-3.695-2.7-6.441-4.191-7.534-4.426-2.286-7.6-7.535-4.619-12.976 2.728-4.971 2.928-6.979 2.451-7.746s-3.55-.455-3.55-.455a4.581 4.581 0 0 1-.879.168l-.014-1.311s-.266-.569-.624-.284a.608.608 0 0 1 .231.516c.018.393-.035 1.121-.035 1.121a9.438 9.438 0 0 1-.543 2.437c.111.146.309.305.422.429a.839.839 0 0 1 .17.826 6.177 6.177 0 0 1-.607 1.209c-.169.206-.194.6-.281.607a2.757 2.757 0 0 0-.365-.6.408.408 0 0 0-.15-.108 1.787 1.787 0 0 1-.634.788 1.82 1.82 0 0 1-.863.148c-.166-.026-.4.139-.634.225-.012-.078.035-.273.015-.469-.01-.143-.218-.225-.234-.534a1.805 1.805 0 0 1 .327-1.166 1.257 1.257 0 0 1-.847-.518c.82-.316.734-1.41 1.485-1.526a9.226 9.226 0 0 1 1.477.385 10.218 10.218 0 0 0 .529-2.341 1.122 1.122 0 0 1-.66-1.068s-2.848-.766-3.874.851c0 0-2.448-4.174 7.144-3.325a4.573 4.573 0 0 1 3.741-.923c4.971 1.029 6.8-.264 7.419-.951 0 0-2.11 4.007-4.019 5.46-1.789 1.362-6 8.412-.913 9.044-1.285-2.492-1.863-4.633 1.393-2.618 0 0 4.262 3.073 6.649-3.149 0 0-.534-1.2 1.176-1.647s12.5-.27 17.748-4.178a38.932 38.932 0 0 1-2.129 7.673l-3.712-.564 3.329 1.5a24.772 24.772 0 0 1-3.077 5.393l-3.205-1.742 2.549 2.54a12.261 12.261 0 0 1-5.941 3.946l-2.387-4.471 1.207 4.729a11.54 11.54 0 0 1-2.727.115 13.8 13.8 0 0 1-1.121-.137c2.666 2.908 4.935 6.372 5.045 9.819 0 0-1.7-4.086-5.175-4.6l.75 1.957s-3.286-1.834-5.166-1.446c-.055.012-.113.018-.169.029-1.549 3.2-.443 7.322-.443 7.322a18.693 18.693 0 0 1 4.747 1.82 38.124 38.124 0 0 0-8.7-.361 8.964 8.964 0 0 0-3.4 1.4c.209-2.559 5.885-3.709 5.885-3.709Zm-5.471-31.267c.227-.031.359-.1.295-.136a49.375 49.375 0 0 1-1.124-.261 5.1 5.1 0 0 0-1.286-.289 12.554 12.554 0 0 0-2.339 1c.088.033 1.314-.4 1.564-.448a.927.927 0 0 1 .38 0c.018.27.24.338.578.342a.836.836 0 0 0 .639-.305 3.514 3.514 0 0 0 1.293.097Zm5.6 27.171v-1.883l-1.624-.407c.2.168.384.327.542.479.021.018.04.042.06.063.1.1.182.191.263.279s.142.161.21.247c.018.025.039.049.056.074a2.073 2.073 0 0 1 .497 1.152Zm54.178-22.942c1.715-.455 12.5-.27 17.749-4.178a38.933 38.933 0 0 1-2.129 7.673l-3.712-.564 3.329 1.5a24.859 24.859 0 0 1-3.077 5.393l-3.206-1.742 2.549 2.54a12.258 12.258 0 0 1-5.94 3.946l-2.387-4.471 1.2 4.729a11.516 11.516 0 0 1-2.725.115 13.877 13.877 0 0 1-1.122-.137c2.664 2.908 4.936 6.372 5.044 9.819 0 0-1.7-4.086-5.174-4.6l.749 1.957s-3.285-1.834-5.164-1.446c-.056.012-.114.018-.17.029-1.549 3.2-.443 7.322-.443 7.322a18.689 18.689 0 0 1 4.748 1.82 38.129 38.129 0 0 0-8.7-.361 8.981 8.981 0 0 0-3.4 1.4c.208-2.559 5.884-3.709 5.884-3.709.4-3.695-2.7-6.441-4.191-7.534-4.424-2.286-7.6-7.535-4.618-12.976 2.727-4.971 2.926-6.979 2.451-7.746s-3.551-.455-3.551-.455a4.558 4.558 0 0 1-.878.168l-.014-1.311s-.269-.569-.624-.284a.611.611 0 0 1 .231.516c.017.393-.036 1.121-.036 1.121a9.352 9.352 0 0 1-.543 2.437c.111.146.308.305.423.429a.839.839 0 0 1 .169.826 6.177 6.177 0 0 1-.607 1.209c-.169.206-.193.6-.279.607a2.715 2.715 0 0 0-.365-.6.419.419 0 0 0-.15-.108 1.794 1.794 0 0 1-.634.788 1.82 1.82 0 0 1-.863.148c-.167-.026-.4.139-.635.225-.012-.078.036-.273.015-.469-.009-.143-.217-.225-.234-.534a1.812 1.812 0 0 1 .327-1.166 1.257 1.257 0 0 1-.846-.518c.819-.316.732-1.41 1.485-1.526a9.246 9.246 0 0 1 1.476.385 10.287 10.287 0 0 0 .531-2.341 1.12 1.12 0 0 1-.662-1.068s-2.848-.766-3.873.851c0 0-2.449-4.174 7.144-3.325a4.572 4.572 0 0 1 3.741-.923c4.97 1.029 6.8-.264 7.419-.951 0 0-2.111 4.007-4.018 5.46-1.791 1.362-6.005 8.412-.914 9.044-1.285-2.492-1.864-4.633 1.393-2.618 0 0 4.261 3.073 6.648-3.149.007.004-.527-1.198 1.183-1.643Zm-11.558-4.229c.226-.031.356-.1.293-.136-.069-.011-.78-.177-1.124-.261a5.127 5.127 0 0 0-1.287-.289 12.554 12.554 0 0 0-2.339 1c.09.033 1.315-.4 1.565-.448a.927.927 0 0 1 .38 0c.017.27.24.338.579.342a.833.833 0 0 0 .636-.305 3.525 3.525 0 0 0 1.297.097Zm5.6 25.287-1.622-.407c.2.168.384.327.54.479a.811.811 0 0 1 .059.063c.1.1.184.191.265.279s.142.161.209.247l.057.074a2.078 2.078 0 0 1 .491 1.148Zm-16.34 58.013c2.153-.572 15.7-.335 22.293-5.246a48.946 48.946 0 0 1-2.674 9.637l-4.662-.708 4.18 1.882a31.179 31.179 0 0 1-3.864 6.771l-4.026-2.188 3.2 3.19a15.415 15.415 0 0 1-7.463 4.958l-3-5.617 1.516 5.941a14.682 14.682 0 0 1-3.425.145 17.64 17.64 0 0 1-1.407-.174c3.347 3.653 6.2 8 6.336 12.333 0 0-2.133-5.132-6.5-5.775l.94 2.457s-4.125-2.3-6.487-1.814c-.07.015-.143.022-.214.036-1.946 4.024-.557 9.2-.557 9.2a23.438 23.438 0 0 1 5.962 2.286c-5.271-.561-7.247-.782-10.926-.452a11.279 11.279 0 0 0-4.27 1.757c.26-3.216 7.39-4.66 7.39-4.66.5-4.641-3.4-8.09-5.264-9.463-5.557-2.871-9.545-9.463-5.8-16.3 3.425-6.245 3.675-8.767 3.078-9.731s-4.46-.569-4.46-.569a5.826 5.826 0 0 1-1.1.213l-.016-1.649s-.337-.713-.783-.356a.77.77 0 0 1 .29.648c.023.493-.044 1.408-.044 1.408a11.74 11.74 0 0 1-.682 3.062c.139.181.387.382.531.538a1.055 1.055 0 0 1 .212 1.037 7.939 7.939 0 0 1-.763 1.522c-.212.257-.244.75-.352.758a3.486 3.486 0 0 0-.458-.75.478.478 0 0 0-.188-.134 2.266 2.266 0 0 1-.8.987 2.3 2.3 0 0 1-1.084.188c-.21-.035-.508.175-.8.279-.015-.1.044-.341.018-.589-.011-.178-.274-.28-.293-.669a2.269 2.269 0 0 1 .41-1.464 1.584 1.584 0 0 1-1.063-.652c1.029-.395.92-1.77 1.865-1.916a11.372 11.372 0 0 1 1.854.483 12.965 12.965 0 0 0 .666-2.941 1.407 1.407 0 0 1-.83-1.343s-3.578-.959-4.864 1.069c0 0-3.077-5.239 8.971-4.173a5.748 5.748 0 0 1 4.7-1.163c6.243 1.293 8.547-.33 9.316-1.194 0 0-2.649 5.034-5.046 6.858-2.248 1.711-7.542 10.567-1.146 11.362-1.615-3.132-2.342-5.82 1.749-3.292 0 0 5.353 3.864 8.351-3.954.006-.002-.665-1.511 1.483-2.069Zm-14.523-5.311c.284-.039.448-.123.37-.17a65.237 65.237 0 0 1-1.413-.325 6.31 6.31 0 0 0-1.615-.366 15.769 15.769 0 0 0-2.939 1.253c.112.041 1.65-.5 1.966-.563a1.244 1.244 0 0 1 .477 0c.023.338.3.425.727.428a1.046 1.046 0 0 0 .8-.381 4.447 4.447 0 0 0 1.626.122Zm7.037 31.764-2.038-.513c.257.21.481.412.68.6.025.022.05.051.076.078.124.121.231.236.331.351s.179.2.264.312l.069.092a2.6 2.6 0 0 1 .618 1.442Zm-8.789-60.894s.3.014.652.045c.416.04.788.1.788.1l-.439-2.225Zm39.513 13.282-1.051-.46.7 1.684-1.707-.819.648 1.689s-.444-.293-1.234-.722l.32.888a4.829 4.829 0 0 1-1.054.464c-.417.093-11.61-9.807-24.431 2.427-1.369 1.3-1.556 1.754-3.263 0-11.28-11.574-24.472-2.221-24.472-2.221l-.7-.467.395-1.006c-.766.407-1.2.689-1.2.689l.834-2.041c-1.169.521-1.859.918-1.859.918l.691-1.541c-.726.29-1.129.492-1.129.492l7.549-18.753c10.331-9.14 22.138-.481 22.138-.481s12.719-9.062 21.662.383ZM34.44 66.091l.423-.082.139-1.543a25.6 25.6 0 0 1-2.665.682 17.706 17.706 0 0 1-2.106.274l-.092.293c.711-.043.746.283.491 1.109l-.959 2.929c-.225.693-.3.994-1.206 1.177l-.136.308c.894-.139 1.218-.228 1.777-.339.647-.131 1.273-.258 1.808-.373l.079-.355c-.828.168-1.031.154-.851-.531l.534-1.656.326-.05c.535-.092.631.332.577.909l.305-.038c.066-.409.118-.8.18-1.207s.153-.837.24-1.255l-.3.042c-.236.759-.456 1.044-.87 1.126l-.37.069.336-1.257c.172-.73.3-.767.967-.9 1.013-.22 1.38-.4 1.372.666Zm4.167-1.447.045-.379c-.527.042-.871.115-1.4.188-.509.061-.858.079-1.281.151l-.085.38c.737-.085.642.2.5.94l-.814 2.762c-.213.854-.336 1.168-1.138 1.258l-.119.364c.45-.043 1.128-.128 1.576-.128.53-.006 1-.006 1.47-.006l.059-.375c-.771 0-.716-.235-.553-1.181l.736-2.923c.093-.696.281-.964 1.004-1.052Zm5.132 6.113a1.019 1.019 0 0 1-.536-.55 11.674 11.674 0 0 1-.224-1.208c-.123-.847-.908-4.708-.908-4.708l-.652-.076s-1.084 2.4-1.916 4.2c-.279.615-.626 1.426-1.3 1.423l-.057.373c.307.014.607.017.912.037.328.027.657.074.986.111l.054-.366c-.289-.055-.8-.121-.582-.6.159-.348.229-.468.337-.709l.142-.3a7.3 7.3 0 0 1 .81.061 9.114 9.114 0 0 1 .9.15l.081.38c.024.148.077.6.084.763.029.44-.435.464-.731.421l-.061.38c.5.062.961.15 1.353.235.5.117.771.21 1.251.357Zm4.408-4.207a10.027 10.027 0 0 0-1.83-1.016 14.276 14.276 0 0 0-2.2-.689l-.247 1.878.335.113c.2-.8.269-1.436.9-1.207.526.186.421.522.35 1.219l-.365 3.183c-.088.865-.126 1.121-.891.911l-.071.356c.5.179.947.317 1.371.488.39.162.823.362 1.321.622l.043-.382c-.626-.37-.708-.728-.613-1.6l.332-3.2c.071-.769.163-1.017.629-.79.49.249.47.987.454 1.83l.327.128Zm12.342 4.386-.039-2-.327.047a2.071 2.071 0 0 1-1.729 2.026c-.9.3-1.006-.248-1.053-1.244l-.16-2.652c-.041-.81-.111-1.228.617-1.456l-.023-.414a12.931 12.931 0 0 0-1.543.48 11.451 11.451 0 0 0-1.142.513l.024.386c.786-.3.73.132.77.944l.182 3.261c.046.8.055 1.125-.638 1.538l.018.372c.442-.243.967-.483 1.388-.676a26.875 26.875 0 0 1 3.654-1.126Zm4.908-4.928a.532.532 0 0 1 .519-.44l-.037-.353c-.378-.039-.561-.03-.862-.073-.32-.042-.612-.1-.957-.12l.038.351a.806.806 0 0 1 .637.43 2.948 2.948 0 0 1 .285 1.106l.173 1.339c.126 1.191.158 1.825-1.046 1.872-1.123.052-1.554-.688-1.676-1.945l-.164-1.558c-.08-.806-.082-1.292.636-1.3l-.033-.352c-.585 0-1.019-.009-1.485.019-.4.015-.839.012-1.49.069l.025.352c.759-.008.759.41.843 1.227l.177 1.626a2.515 2.515 0 0 0 2.881 2.52c2.068-.081 1.891-.977 1.684-2.762l-.118-.882a3.007 3.007 0 0 1-.03-1.127Zm7.01 6-.055-.342c-.382-.066-.634-.386-.935-.781l-1.79-2.633.713-1.058c.263-.409.425-.674.832-.674l-.123-.367c-.269 0-.448.015-.738 0a8.606 8.606 0 0 1-.838-.1l.029.375c.338.046.708.244.552.48a4.191 4.191 0 0 1-.317.468l-.354.5-.494-.74a.924.924 0 0 1-.2-.506c-.025-.3.266-.24.477-.224l-.037-.391c-.375-.045-.784-.093-1.2-.167s-.847-.188-1.223-.3l.015.359a1.336 1.336 0 0 1 .542.418 3.9 3.9 0 0 1 .407.628l1.091 1.645-.941 1.425c-.228.358-.49.715-.914.66l.022.365c.3.041.594.1.905.143.345.068.615.131 1.038.211l-.028-.355c-.273-.061-.558-.137-.587-.507a1.655 1.655 0 0 1 .343-.879l.411-.633.779 1.181a2.619 2.619 0 0 1 .421.764.216.216 0 0 1-.117.228 1.4 1.4 0 0 1-.46.017l.041.343c.461.088.949.139 1.364.21.523.073.793.142 1.368.232Z"/><path data-name="Path 77" d="M176.454 123.119c-1.11 0-4.011 8.786-23.719 8.786-7.165 0-6.483-2.047-6.483-7.08V83.362c0-7.422 6.231-5.288 6.231-7.251 0-1.024-.515-1.193-1.625-1.193-1.278 0-3.325.341-8.189.341-4.18 0-6.825-.341-8.617-.341-1.109 0-1.707.169-1.707 1.109 0 1.7 7.166 1.108 7.166 5.545v43.255c0 4.009-.17 6.4-2.387 7.421-2.732 1.366-3.582 1.2-3.753 2.221 0 .681.51.849 1.279.849 3.409 0 6.995-.256 10.406-.34 6.486-.171 12.97.34 19.453.34 3.753 0 5.631.173 8.36-2.9 2.047-2.217 4.265-5.2 4.265-8.277.002-.17-.082-1.022-.68-1.022Z"/><path data-name="Path 78" d="M193.615 128.067V82.254c0-6.4 6.142-4.437 6.142-6.486 0-.682-.256-.853-1.619-.853-2.645 0-5.291.343-7.935.343-3.155 0-6.23-.343-9.384-.343-.682 0-.853.172-.853.94 0 1.877 6.825.17 6.911 6.4v43.681c0 8.447-6.655 5.63-6.655 8.1 0 .853.258 1.279 1.793 1.279 1.193 0 2.986-.342 8.189-.342 3.669 0 7.338.342 9.3.342 1.45 0 1.707-.258 1.707-.853-.003-2.554-7.596-.594-7.596-6.395Z"/><path data-name="Path 79" d="M261.862 74.915c-1.194 0-2.475.343-6.57.343-1.877 0-3.755-.343-5.632-.343-.852 0-1.279.257-1.279 1.11 0 1.962 5.461.341 5.461 4.265.342 1.792-.681 4.522-1.194 5.8l-14.845 36.6c-.427 1.023-.682 2.388-1.535 2.388-.937 0-1.534-1.962-3.412-6.484l-14.931-35.15a9.114 9.114 0 0 1-.768-3.326c0-3.072 3.585-3.156 3.5-4.352 0-.511-.683-.854-1.2-.854-1.194 0-4.437.343-6.741.343-2.559 0-5.2-.343-7.848-.343a1.079 1.079 0 0 0-1.193 1.2c0 1.877 4.436.256 6.566 5.377l21.076 49.823c.767 1.791 1.79 5.374 3.155 5.374 1.279 0 1.878-2.816 2.816-4.948l21.243-50.249c2.39-5.717 4.778-3.585 4.778-5.462.003-.769-.508-1.112-1.447-1.112Z"/><path data-name="Path 80" d="M311.283 123.119c-1.11 0-4.01 8.789-23.718 8.789-7.167 0-6.484-2.05-6.484-7.082v-15.7c0-1.279-.255-2.73 1.537-2.73h12.625c7.167 0 4.266 7.507 6.911 7.507.6 0 .939-.34.939-1.109 0-2.3-.171-4.521-.171-6.74 0-2.73.171-5.63.171-8.617 0-.682-.258-1.619-.939-1.619-2.048 0 .256 6.824-8.617 6.824h-9.212c-3.412 0-3.243 0-3.243-2.9v-15.87c0-5.715-.169-5.375 8.018-5.375 3.414 0 12.288-.51 14.5 2.391 1.37 1.963 0 6.056 2.053 6.056.509 0 1.7-.682 1.7-10.15 0-1.025-.17-1.879-.853-1.879-2.643 0-10.493.343-12.2.343-3.581 0-8.018-.343-24.141-.343-2.475 0-2.986.343-2.986 1.025 0 1.023 1.876 1.194 2.558 1.365 4.609.683 4.609 4.778 4.609 8.617v38.9c0 4.01-.172 6.4-2.39 7.421-2.731 1.366-3.581 1.2-3.753 2.221 0 .681.513.849 1.281.849 3.411 0 6.995-.256 10.407-.341 6.483-.169 12.969.341 19.452.341 3.754 0 5.632.173 8.36-2.9 2.047-2.219 4.264-5.2 4.264-8.277.003-.164-.08-1.017-.678-1.017Z"/><path data-name="Path 81" d="M453.273 74.149c-17.488 0-31.308 12.883-31.308 30.628 0 18 11.344 31.141 29.859 31.141 19.024 0 32.249-12.371 32.249-31.566 0-17.662-13.394-30.203-30.8-30.203Zm2.134 59.208c-16.892 0-27.216-15.271-27.216-31.053 0-13.481 8.19-25.34 22.523-25.34 16.637 0 27.13 15.1 27.13 30.631 0 15.781-9.981 25.762-22.437 25.762Z"/><path data-name="Path 82" d="M521.792 74.149c-17.487 0-31.31 12.883-31.31 30.628 0 18 11.346 31.141 29.86 31.141 19.026 0 32.248-12.371 32.248-31.566 0-17.662-13.393-30.203-30.798-30.203Zm2.132 59.208c-16.889 0-27.213-15.271-27.213-31.053 0-13.481 8.19-25.34 22.521-25.34 16.638 0 27.132 15.1 27.132 30.631 0 15.781-9.984 25.762-22.441 25.762Z"/><path data-name="Path 83" d="M599.8 123.119c-1.111 0-4.011 8.786-23.718 8.786-7.167 0-6.484-2.047-6.484-7.08V83.362c0-7.422 6.228-5.288 6.228-7.251 0-1.024-.511-1.193-1.619-1.193-1.279 0-3.327.341-8.191.341-4.181 0-6.826-.341-8.618-.341-1.11 0-1.707.169-1.707 1.109 0 1.7 7.165 1.108 7.165 5.545v43.255c0 4.009-.17 6.4-2.388 7.421-2.729 1.366-3.583 1.2-3.754 2.221 0 .681.513.849 1.28.849 3.415 0 7-.256 10.411-.34 6.482-.171 12.969.34 19.452.34 3.752 0 5.629.173 8.359-2.9 2.045-2.217 4.266-5.2 4.266-8.277 0-.17-.086-1.022-.682-1.022Z"/><path data-name="Rectangle 86" d="M113.133 61.127H611.58v1.296H113.133z"/><path data-name="Rectangle 87" d="M219.728 18.917h3.72v29.901h-3.72z"/><path data-name="Path 84" d="M302.73 45.504h-15.867V35.191h15.556v-3.318h-15.556v-9.637h15.868v-3.317h-19.589v29.9h19.588Z"/><path data-name="Path 85" d="m255.627 48.818 12.015-29.9h-4.259l-10.088 25.821-10.087-25.821h-4.259l12.058 29.9Z"/><path data-name="Path 86" d="m180.096 24.971 17.438 23.847h3.587v-29.9h-3.72v23.356l-17.215-23.356h-3.811v29.9h3.721Z"/><path data-name="Path 87" d="M145.54 49.356c8.115 0 12.239-4.75 12.239-12.193V18.919h-3.767v18.2c0 5.469-2.958 8.921-8.471 8.921s-8.428-3.452-8.428-8.921v-18.2h-3.765v18.285c-.001 7.357 4.123 12.152 12.192 12.152Z"/><path data-name="Path 88" d="M569.611 35.191h15.554v-3.318h-15.554v-9.637h15.868v-3.317H565.89v29.9h3.722Z"/><path data-name="Path 89" d="M468.893 48.818h3.72v-12.64l11.746-17.259h-4.348l-9.28 13.9-9.279-13.9h-4.349l11.79 17.259Z"/><path data-name="Path 90" d="M428.38 48.818h3.719V22.237h9.5V18.92h-22.68v3.317h9.46Z"/><path data-name="Path 91" d="M325.053 36.941h6.006l7.576 11.877h4.394l-8.07-12.191a8.3 8.3 0 0 0 7.8-8.7c0-5.514-3.945-9.009-9.416-9.009h-12.012v29.9h3.722Zm0-14.7h7.844c3.542 0 6.008 2.286 6.008 5.69 0 3.365-2.466 5.74-6.008 5.74h-7.844Z"/><path data-name="Path 92" d="M533.57 49.355c8.832 0 14.883-6.634 14.883-15.464s-6.051-15.468-14.883-15.468-14.839 6.635-14.839 15.468 6.009 15.464 14.839 15.464Zm0-27.615c6.678 0 11.028 5.158 11.028 12.151 0 6.947-4.35 12.147-11.028 12.147-6.726 0-10.984-5.2-10.984-12.147.001-6.993 4.258-12.151 10.984-12.151Z"/><path data-name="Rectangle 88" d="M397.772 18.917h3.721v29.901h-3.721z"/><path data-name="Path 93" d="M370.01 46.038a12.331 12.331 0 0 1-9.368-4.3l-2.242 2.87a14.875 14.875 0 0 0 11.476 4.75c8.069 0 11.028-4.481 11.028-8.786 0-11.162-17.708-7.306-17.708-14.031 0-2.824 2.6-4.751 6.14-4.751a11.282 11.282 0 0 1 8.654 3.585l2.242-2.735a14.055 14.055 0 0 0-10.58-4.215c-5.918 0-10.31 3.41-10.31 8.34 0 10.669 17.707 6.366 17.707 14.076 0 2.326-1.704 5.197-7.039 5.197Z"/><path data-name="Path 94" d="M387.656 80.461c0-2.559 1.876-2.559 4.606-2.559 9.812 0 17.748 5.46 17.748 15.783 0 7.678-5.12 11.858-13.822 11.858a42.366 42.366 0 0 1-5.546-.511c-.426 0-.852.17-.852.767 0 1.537 4.946 1.964 5.8 1.964 18.173 0 20.732-12.97 20.732-16.383 0-12.711-12.027-16.463-22.863-16.463-4.1 0-5.46.341-9.726.341-4.949 0-7.937-.341-8.7-.341a1.172 1.172 0 0 0-1.114 1.275c0 3.073 7-2.132 7 8.107v40.867c0 9.468-6.656 6.823-6.656 9.127 0 .766.852 1.021 1.367 1.021 2.474 0 5.289-.34 9.3-.34 5.032 0 6.312.34 9.214.34 2.133 0 2.474-.424 2.474-1.021 0-2.9-8.958 1.535-8.958-10.75Z"/><path data-name="Path 95" d="M346.712 104.434c5.971-2.388 10.75-8.1 10.75-14.761 0-16.463-18.856-14.758-20.22-14.758-4.436 0-9.3.343-14.247.343a48.271 48.271 0 0 1-5.462-.343c-1.023 0-1.7.513-1.7 1.025 0 2.9 7.337-.6 7.337 7.593v43.425c0 6.483-6.23 5.288-6.23 7.423a.875.875 0 0 0 .853.935c3.244 0 6.487-.341 9.729-.341 7.077 0 9.043.341 9.808.341.684 0 1.451.173 1.451-.68 0-2.9-8.872-.256-8.872-7.593v-18c0-.852-.512-2.387 2.216-2.387 9.556 0 8.275-.256 11.35 4.522l9.468 14.93c3.242 4.863 6.571 9.212 12.8 9.212.768 0 5.547 0 5.547-1.022 0-2.048-4.18 1.109-10.325-8.274Zm-16.807-23.546c0-3.327 1.792-3.158 4.865-3.158 8.358 0 16.292 3.5 16.292 13.906 0 10.579-8.191 12.116-11.858 12.116-4.012 0-9.3.428-9.3-1.194Z"/></g></svg>