<svg xmlns="http://www.w3.org/2000/svg" width="342" height="186"><defs><clipPath id="a"><path d="M0 0h342v186H0z"/></clipPath></defs><g data-name="Group 20" clip-path="url(#a)"><g data-name="Group 2"><path data-name="Path 1" d="M156.532 63.929v24.359h-7.461V79.31h-6.892v8.978h-7.461V63.929h7.461v8.63h6.892v-8.63Z" fill="#eed9d2"/><path data-name="Path 2" d="M179.284 82.094v6.194h-18.4V63.929h17.986v6.194h-10.652v2.853h9.359v5.916h-9.359v3.2Z" fill="#eed9d2"/><path data-name="Path 3" d="M137.562 118.216q-2.845-3.028-2.845-8.49v-13.4h7.461v13.154a6.83 6.83 0 0 0 .869 3.9 3.2 3.2 0 0 0 5.028 0 6.83 6.83 0 0 0 .868-3.9V96.328h7.335v13.4q0 5.463-2.844 8.49a10.362 10.362 0 0 1-7.936 3.028q-5.09 0-7.936-3.028" fill="#eed9d2"/><path data-name="Path 4" d="M182.698 96.327v24.359h-6.134l-8.41-11.066v11.066h-7.272V96.327h6.135l8.408 11.067V96.327Z" fill="#eed9d2"/><path data-name="Path 5" d="M202.518 107.846h6.481v10.3a14.444 14.444 0 0 1-4.552 2.3 17.2 17.2 0 0 1-5.089.8 12.515 12.515 0 0 1-6.355-1.618 11.489 11.489 0 0 1-4.411-4.524 14.418 14.418 0 0 1 0-13.189 11.4 11.4 0 0 1 4.458-4.523 12.9 12.9 0 0 1 6.465-1.618 13.643 13.643 0 0 1 5.832 1.2 11.1 11.1 0 0 1 4.285 3.5l-4.775 4.628a6.145 6.145 0 0 0-4.963-2.68 4.986 4.986 0 0 0-3.92 1.635 7.531 7.531 0 0 0-.015 8.875 4.815 4.815 0 0 0 3.841 1.67 6.472 6.472 0 0 0 2.719-.592Z" fill="#eed9d2"/><path data-name="Path 6" d="M117.481 70.297h-6.482v-6.368h20.423v6.368h-6.481v17.991h-7.461Z" fill="#eed9d2"/><path data-name="Path 7" d="M117.481 102.696h-6.482v-6.368h20.423v6.368h-6.481v17.991h-7.461Z" fill="#eed9d2"/><path data-name="Path 8" d="m123.302 142.924-2.149-6.125-2.15 6.125Zm2.055 5.915h-8.41l-1.486 4.245h-7.588l9.674-24.359h7.335l9.674 24.359h-7.714Z" fill="#eed9d2"/><path data-name="Path 9" d="M137.562 150.614q-2.845-3.028-2.845-8.491v-13.4h7.461v13.157a6.83 6.83 0 0 0 .869 3.9 3.2 3.2 0 0 0 5.028 0 6.83 6.83 0 0 0 .868-3.9v-13.154h7.335v13.4q0 5.463-2.844 8.491a10.362 10.362 0 0 1-7.936 3.028q-5.09 0-7.936-3.028" fill="#eed9d2"/><path data-name="Path 10" d="M171.475 146.682a5.052 5.052 0 0 0 3.842-1.513 7.035 7.035 0 0 0 0-8.526 5.053 5.053 0 0 0-3.842-1.514h-3.13v11.553Zm-10.591-17.956h10.907a13.888 13.888 0 0 1 6.528 1.479 10.6 10.6 0 0 1 4.395 4.228 14.168 14.168 0 0 1 0 12.945 10.6 10.6 0 0 1-4.395 4.228 13.887 13.887 0 0 1-6.528 1.479h-10.907Z" fill="#eed9d2"/><path data-name="Rectangle 1" fill="#eed9d2" d="M186.997 128.726h7.461v24.359h-7.461z"/><path data-name="Path 11" d="M205.77 135.09h-6.48v-6.368h20.423v6.368h-6.481v18h-7.462Z" fill="#eed9d2"/><path data-name="Path 12" d="M237.023 146.247a5.2 5.2 0 0 0 1.786-2.123 8.136 8.136 0 0 0 0-6.438 5.207 5.207 0 0 0-1.786-2.123 4.6 4.6 0 0 0-5.027 0 5.2 5.2 0 0 0-1.787 2.123 8.137 8.137 0 0 0 0 6.438 5.189 5.189 0 0 0 1.787 2.123 4.6 4.6 0 0 0 5.027 0m-8.931 5.763a11.659 11.659 0 0 1-4.458-4.542 14.15 14.15 0 0 1 0-13.119 11.672 11.672 0 0 1 4.458-4.541 13.411 13.411 0 0 1 12.836 0 11.678 11.678 0 0 1 4.458 4.541 14.149 14.149 0 0 1 0 13.119 11.666 11.666 0 0 1-4.458 4.542 13.411 13.411 0 0 1-12.836 0" fill="#eed9d2"/><path data-name="Path 13" d="M263.754 135.807a3.119 3.119 0 0 0-2.277-.748h-2.719v5.707h2.717a3.115 3.115 0 0 0 2.277-.749 3.3 3.3 0 0 0 0-4.211m-2.973 11.153h-2.023v6.131h-7.461v-24.364h10.655a12.032 12.032 0 0 1 5.342 1.113 8.108 8.108 0 0 1 3.51 3.2 9.4 9.4 0 0 1 1.233 4.872 9.293 9.293 0 0 1-1.075 4.558 7.911 7.911 0 0 1-3.1 3.1l4.648 7.517h-7.968Z" fill="#eed9d2"/><path data-name="Rectangle 2" fill="#eed9d2" d="M276.431 128.726h7.461v24.359h-7.461z"/><g data-name="Group 1"><path data-name="Path 14" d="M291.733 150.614q-2.846-3.028-2.846-8.491v-13.4h7.462v13.157a6.83 6.83 0 0 0 .868 3.9 3.2 3.2 0 0 0 5.028 0 6.832 6.832 0 0 0 .868-3.9v-13.154h7.335v13.4q0 5.463-2.844 8.491a10.363 10.363 0 0 1-7.936 3.028q-5.09 0-7.936-3.028" fill="#eed9d2"/></g><path data-name="Path 15" d="m335.204 153.085-.064-11.1-4.803 8.905h-3.289l-4.8-8.526v10.718h-6.8v-24.356h6.133l7.208 12.98 7.018-12.98h6.13l.063 24.359Z" fill="#eed9d2"/><path data-name="Path 16" d="M131.452 48.091H97.616a2.545 2.545 0 0 0-2.545 2.545v97.784l-19.033-.117V17.071l55.412.136Zm2.551-35.969-58.044-.143V2.837A2.842 2.842 0 0 0 73.12-.001H3.34A2.843 2.843 0 0 0 .501 2.837v47.385a2.843 2.843 0 0 0 2.839 2.839h45.353v129.353a2.842 2.842 0 0 0 2.84 2.839h21.583a2.842 2.842 0 0 0 2.839-2.839v-29.02l21.644.132h.017a2.546 2.546 0 0 0 2.545-2.545V53.182h33.835a2.545 2.545 0 0 0 2.545-2.546V14.667a2.545 2.545 0 0 0-2.538-2.545" fill="#eed9d2"/></g></g></svg>